<svg xmlns="http://www.w3.org/2000/svg" xmlns:xlink="http://www.w3.org/1999/xlink" width="0" height="0" style="position:absolute">
	
		<symbol id="scissors" viewBox="0 0 387.363 387.363">
			<path d="M333.381 288.65c-10.341-18.002-26.8-31.189-45.187-36.209-12.502-3.417-25.202-2.774-36.251 1.724l-32.414-56.704c28.806-52.881 71.47-131.12 76.855-140.53 13.169-23.019-8.448-48.576-9.373-49.645L280.731 0l-87.042 152.248L106.64.012l-6.278 7.287c-.934 1.068-22.548 26.625-9.382 49.647 5.38 9.4 48.053 87.64 76.861 140.527l-32.417 56.703c-11.058-4.497-23.749-5.14-36.26-1.724-18.381 5.014-34.846 18.207-45.177 36.215-19.413 33.934-11.586 75.061 17.438 91.664 8.104 4.665 17.087 7.031 26.697 7.031 5.278 0 10.761-.414 15.976-2.191 31.114-10.587 47.05-36.023 54.683-62.132.327-1.123 15.678-63.327 24.25-76.88 0 0 .265-.486.658-1.213.39.727.661 1.213.661 1.213 8.571 13.553 23.92 75.757 24.25 76.88 7.62 26.108 23.569 51.551 54.68 62.132 5.212 1.777 10.694 2.191 15.973 2.191 9.614 0 18.591-2.366 26.704-7.031 29.007-16.621 36.826-57.741 17.424-91.681zm-199.224 45.925c-6.446 11.247-16.792 19.737-27.634 22.686-2.853.769-5.663 1.159-8.355 1.159-4.501 0-8.653-1.093-12.328-3.2-15.183-8.671-18.209-32.102-6.722-52.194 6.542-11.396 16.621-19.653 27.616-22.649 7.506-2.03 14.775-1.382 20.726 2.018 15.17 8.699 18.175 32.112 6.697 52.18zM301.52 355.22c-3.682 2.113-7.824 3.206-12.328 3.206-2.69 0-5.507-.396-8.353-1.165-10.845-2.942-21.191-11.433-27.634-22.68-11.481-20.074-8.474-43.48 6.688-52.164 5.957-3.404 13.223-4.059 20.729-2.018 11.001 2.984 21.077 11.241 27.616 22.645 11.488 20.086 8.468 43.505-6.718 52.176z" fill="#FFF"></path>
		</symbol>
	
</svg>
